# xmcd CD Database Entry
#
# Track frame offsets:
# 150
# 13703
# 28781
#
# Disc length: 632 seconds
#
# Revision: 2
# Processed by: cddbd v1.5.1PL0 Copyright (c) Steve Scherf et al.
# Submitted via: tcd 2.0b
#
DISCID=1b027603
DTITLE=The Duke Spirit/Dark is Light Enough
DYEAR=1900
DGENRE=
TTITLE0=Dark is LIght Enough
TTITLE1=You Weere Born Inside MY HEart
TTITLE2=Boot Hill (demo)
EXTD=
EXTT0=
EXTT1=
EXTT2=
PLAYORDER=
